<svg width="800" height="420" viewBox="0 0 800 420" fill="none" xmlns="http://www.w3.org/2000/svg">
  <rect width="800" height="420" fill="#F8FAFC"/>
  <rect x="60" y="40" width="700" height="320" rx="12" fill="#FFFFFF" stroke="#CBD5E1" stroke-width="2"/>
  <text x="90" y="80" font-family="Arial, sans-serif" font-size="24" font-weight="700" fill="#1E293B">Sample Bar Graph: Fruits Sold</text>

  <line x1="120" y1="320" x2="700" y2="320" stroke="#334155" stroke-width="3"/>
  <line x1="120" y1="320" x2="120" y2="110" stroke="#334155" stroke-width="3"/>

  <text x="70" y="330" font-family="Arial, sans-serif" font-size="14" fill="#475569">0</text>
  <text x="64" y="286" font-family="Arial, sans-serif" font-size="14" fill="#475569">10</text>
  <text x="64" y="246" font-family="Arial, sans-serif" font-size="14" fill="#475569">20</text>
  <text x="64" y="206" font-family="Arial, sans-serif" font-size="14" fill="#475569">30</text>
  <text x="64" y="166" font-family="Arial, sans-serif" font-size="14" fill="#475569">40</text>

  <line x1="120" y1="280" x2="700" y2="280" stroke="#E2E8F0" stroke-width="1"/>
  <line x1="120" y1="240" x2="700" y2="240" stroke="#E2E8F0" stroke-width="1"/>
  <line x1="120" y1="200" x2="700" y2="200" stroke="#E2E8F0" stroke-width="1"/>
  <line x1="120" y1="160" x2="700" y2="160" stroke="#E2E8F0" stroke-width="1"/>

  <rect x="180" y="210" width="80" height="110" rx="8" fill="#2563EB"/>
  <rect x="320" y="180" width="80" height="140" rx="8" fill="#16A34A"/>
  <rect x="460" y="240" width="80" height="80" rx="8" fill="#F59E0B"/>
  <rect x="600" y="160" width="80" height="160" rx="8" fill="#9333EA"/>

  <text x="205" y="350" font-family="Arial, sans-serif" font-size="16" fill="#334155">Apple</text>
  <text x="340" y="350" font-family="Arial, sans-serif" font-size="16" fill="#334155">Mango</text>
  <text x="480" y="350" font-family="Arial, sans-serif" font-size="16" fill="#334155">Pear</text>
  <text x="620" y="350" font-family="Arial, sans-serif" font-size="16" fill="#334155">Grapes</text>

  <text x="196" y="200" font-family="Arial, sans-serif" font-size="14" font-weight="700" fill="#1E293B">28</text>
  <text x="336" y="170" font-family="Arial, sans-serif" font-size="14" font-weight="700" fill="#1E293B">35</text>
  <text x="476" y="230" font-family="Arial, sans-serif" font-size="14" font-weight="700" fill="#1E293B">20</text>
  <text x="616" y="150" font-family="Arial, sans-serif" font-size="14" font-weight="700" fill="#1E293B">40</text>

  <text x="15" y="180" transform="rotate(-90 15 180)" font-family="Arial, sans-serif" font-size="16" font-weight="600" fill="#334155">Number Sold</text>
</svg>
